<svg width="34" height="34" viewBox="0 0 34 34" fill="none" xmlns="http://www.w3.org/2000/svg">
<path d="M21.9583 17C21.9583 19.7384 19.7384 21.9583 17 21.9583C14.2616 21.9583 12.0417 19.7384 12.0417 17C12.0417 14.2616 14.2616 12.0417 17 12.0417C19.7384 12.0417 21.9583 14.2616 21.9583 17Z" stroke="white" stroke-width="3"/>
<path d="M29.7656 19.9701C30.5049 19.7707 30.8747 19.671 31.0206 19.4803C31.1667 19.2898 31.1667 18.9831 31.1667 18.3698V15.6304C31.1667 15.0171 31.1667 14.7104 31.0206 14.5199C30.8745 14.3292 30.5049 14.2294 29.7656 14.0301C27.0025 13.2849 25.2732 10.3962 25.9863 7.65125C26.1824 6.89633 26.2804 6.51889 26.1868 6.29751C26.0932 6.07612 25.8246 5.92358 25.2871 5.61846L22.8437 4.23121C22.3165 3.93182 22.0528 3.78212 21.8162 3.81399C21.5795 3.84587 21.3126 4.11221 20.7785 4.64488C18.7113 6.70719 15.2909 6.70711 13.2236 4.64475C12.6897 4.11207 12.4227 3.84574 12.1861 3.81385C11.9494 3.78197 11.6858 3.93167 11.1584 4.23107L8.7151 5.61833C8.17775 5.92342 7.90906 6.07597 7.81543 6.29731C7.72179 6.51866 7.81981 6.89616 8.01585 7.65115C8.7286 10.3962 6.99793 13.285 4.23444 14.0301C3.49508 14.2294 3.1254 14.3292 2.97936 14.5197C2.83333 14.7104 2.83333 15.0171 2.83333 15.6304V18.3698C2.83333 18.9831 2.83333 19.2898 2.97936 19.4803C3.12537 19.671 3.49507 19.7707 4.23444 19.9701C6.99748 20.7152 8.72678 23.6039 8.01368 26.3489C7.81757 27.1038 7.71951 27.4812 7.81314 27.7026C7.90678 27.9241 8.17547 28.0766 8.71285 28.3817L11.1562 29.769C11.6835 30.0683 11.9472 30.2181 12.1839 30.1862C12.4206 30.1543 12.6875 29.8879 13.2213 29.3552C15.2897 27.2912 18.7125 27.2911 20.7809 29.355C21.3147 29.8879 21.5816 30.1542 21.8184 30.1861C22.0549 30.2179 22.3187 30.0682 22.846 29.7689L25.2893 28.3815C25.8268 28.0765 26.0956 27.9239 26.1891 27.7025C26.2827 27.4811 26.1847 27.1037 25.9885 26.3487C25.275 23.6039 27.0029 20.7154 29.7656 19.9701Z" stroke="white" stroke-width="3" stroke-linecap="round"/>
</svg>
