<svg width="34" height="34" viewBox="0 0 34 34" fill="none" xmlns="http://www.w3.org/2000/svg">
<path d="M2.83333 17C2.83333 11.9886 2.83333 9.48283 4.32479 7.80993C4.56335 7.54237 4.82627 7.2949 5.11056 7.07039C6.88801 5.66666 9.55034 5.66666 14.875 5.66666H19.125C24.4497 5.66666 27.112 5.66666 28.8894 7.07039C29.1737 7.2949 29.4366 7.54237 29.6752 7.80993C31.1667 9.48283 31.1667 11.9886 31.1667 17C31.1667 22.0114 31.1667 24.5171 29.6752 26.19C29.4366 26.4577 29.1737 26.705 28.8894 26.9295C27.112 28.3333 24.4497 28.3333 19.125 28.3333H14.875C9.55034 28.3333 6.88801 28.3333 5.11056 26.9295C4.82627 26.705 4.56335 26.4577 4.32479 26.19C2.83333 24.5171 2.83333 22.0114 2.83333 17Z" stroke="white" stroke-width="3" stroke-linecap="round" stroke-linejoin="round"/>
<path d="M14.1667 22.6667H16.2917" stroke="white" stroke-width="3" stroke-miterlimit="10" stroke-linecap="round" stroke-linejoin="round"/>
<path d="M20.5417 22.6667H25.5" stroke="white" stroke-width="3" stroke-miterlimit="10" stroke-linecap="round" stroke-linejoin="round"/>
<path d="M2.83333 12.75H31.1667" stroke="white" stroke-width="3" stroke-linejoin="round"/>
</svg>
