<svg width="70" height="70" viewBox="0 0 70 70" fill="none" xmlns="http://www.w3.org/2000/svg">
<rect width="70" height="70" rx="35" fill="#E7EDFF"/>
<path d="M47.95 24.1876C47.8326 24.0504 47.687 23.9402 47.523 23.8647C47.359 23.7892 47.1806 23.7501 47 23.7501H35.75C35.5725 23.7503 35.3971 23.7883 35.2355 23.8616C35.0738 23.9349 34.9296 24.0418 34.8125 24.1751C34.6951 24.3089 34.6076 24.4661 34.5558 24.6364C34.5041 24.8067 34.4893 24.9861 34.5125 25.1626L35.7625 34.5376C35.7838 34.7018 35.8373 34.8601 35.9198 35.0036C36.0024 35.1471 36.1124 35.2729 36.2435 35.3739C36.3747 35.4749 36.5245 35.549 36.6843 35.5921C36.8441 35.6352 37.0108 35.6464 37.175 35.6251C37.3392 35.6038 37.4975 35.5503 37.641 35.4678C37.7845 35.3852 37.9103 35.2752 38.0113 35.1441C38.1123 35.0129 38.1864 34.8632 38.2295 34.7033C38.2726 34.5435 38.2838 34.3768 38.2625 34.2126L37.25 26.6001C37.2429 26.5574 37.246 26.5136 37.2591 26.4724C37.2721 26.4311 37.2947 26.3935 37.325 26.3626C37.3512 26.3307 37.3835 26.3044 37.42 26.2851C37.4565 26.2658 37.4964 26.2539 37.5375 26.2501H45.125C45.1708 26.2475 45.2166 26.2565 45.2581 26.2761C45.2995 26.2958 45.3354 26.3255 45.3625 26.3626C45.393 26.3959 45.4156 26.4357 45.4286 26.479C45.4416 26.5223 45.4446 26.568 45.4375 26.6126L44.075 34.8251C44.0203 35.1566 44.0995 35.4963 44.2953 35.7694C44.491 36.0425 44.7872 36.2267 45.1188 36.2814C45.2829 36.3084 45.4508 36.3029 45.6128 36.2651C45.7748 36.2273 45.9278 36.158 46.063 36.0611C46.3361 35.8653 46.5203 35.5691 46.575 35.2376L48.25 25.2376C48.2827 25.0513 48.2727 24.86 48.2207 24.6781C48.1688 24.4962 48.0762 24.3285 47.95 24.1876Z" fill="#396AFF"/>
<path d="M43.875 37.5001H36.375C36.3168 37.5022 36.2594 37.4866 36.2103 37.4553C36.1612 37.4241 36.1227 37.3787 36.1 37.3251L34.9 35.0001C34.8546 34.9055 34.7862 34.8239 34.701 34.7628C34.6158 34.7016 34.5166 34.6629 34.4125 34.6501C34.3074 34.638 34.201 34.6522 34.1028 34.6915C34.0046 34.7308 33.9177 34.7939 33.85 34.8751L31.5 37.7626C31.3067 37.9675 31.0435 38.0924 30.7625 38.1126H29.5125C29.4283 38.1109 29.3447 38.1262 29.2665 38.1577C29.1884 38.1891 29.1175 38.236 29.0579 38.2955C28.9984 38.3551 28.9515 38.426 28.9201 38.5041C28.8886 38.5823 28.8733 38.6659 28.875 38.7501V46.2501C28.873 46.3475 28.8947 46.4439 28.9382 46.531C28.9818 46.6181 29.0459 46.6933 29.125 46.7501C32 48.9126 34.225 50.0001 35.75 50.0001H42.6875C43.2318 50.0922 43.7905 49.9689 44.2455 49.6562C44.7004 49.3436 45.0158 48.8662 45.125 48.3251C45.734 45.3718 46.1515 42.3822 46.375 39.3751C46.375 38.4376 45.5125 37.5001 43.875 37.5001ZM26.1625 36.8751H22.3125C22.2296 36.8751 22.1501 36.908 22.0915 36.9666C22.0329 37.0252 22 37.1047 22 37.1876V48.4376C22 48.5205 22.0329 48.6 22.0915 48.6586C22.1501 48.7172 22.2296 48.7501 22.3125 48.7501H26.1625C26.267 48.7624 26.373 48.7525 26.4735 48.7212C26.5739 48.6898 26.6667 48.6377 26.7457 48.5681C26.8247 48.4985 26.8882 48.4131 26.932 48.3174C26.9758 48.2217 26.999 48.1179 27 48.0126V37.6126C26.999 37.5074 26.9758 37.4035 26.932 37.3078C26.8882 37.2121 26.8247 37.1267 26.7457 37.0571C26.6667 36.9875 26.5739 36.9354 26.4735 36.904C26.373 36.8727 26.267 36.8628 26.1625 36.8751ZM39.5 31.2501C39.5 31.7474 39.6975 32.2243 40.0492 32.5759C40.4008 32.9276 40.8777 33.1251 41.375 33.1251C41.8723 33.1251 42.3492 32.9276 42.7008 32.5759C43.0525 32.2243 43.25 31.7474 43.25 31.2501C43.25 30.7528 43.0525 30.2759 42.7008 29.9243C42.3492 29.5726 41.8723 29.3751 41.375 29.3751C40.8777 29.3751 40.4008 29.5726 40.0492 29.9243C39.6975 30.2759 39.5 30.7528 39.5 31.2501ZM32.625 33.7501C32.8074 33.7525 32.9882 33.7148 33.1545 33.6399C33.3208 33.565 33.4688 33.4546 33.5879 33.3164C33.707 33.1782 33.7944 33.0156 33.844 32.8401C33.8936 32.6645 33.9042 32.4802 33.875 32.3001L32.2875 22.8626C32.2567 22.7821 32.2567 22.6931 32.2875 22.6126C32.3256 22.5618 32.3784 22.5237 32.4387 22.5036C32.499 22.4835 32.564 22.4823 32.625 22.5001H42.625C42.9565 22.5001 43.2745 22.3684 43.5089 22.134C43.7433 21.8996 43.875 21.5816 43.875 21.2501C43.875 20.9186 43.7433 20.6006 43.5089 20.3662C43.2745 20.1318 42.9565 20.0001 42.625 20.0001H30.75C30.5676 19.9978 30.3868 20.0354 30.2205 20.1103C30.0542 20.1852 29.9062 20.2956 29.7871 20.4338C29.668 20.572 29.5806 20.7346 29.531 20.9102C29.4814 21.0857 29.4708 21.27 29.5 21.4501L31.375 32.7001C31.4229 32.9959 31.5755 33.2646 31.8049 33.4573C32.0344 33.6501 32.3254 33.754 32.625 33.7501Z" fill="#396AFF"/>
</svg>
