<svg width="34" height="34" viewBox="0 0 34 34" fill="none" xmlns="http://www.w3.org/2000/svg">
<path d="M13.8125 4.25H8.14583C7.15731 4.25 6.66305 4.25 6.26086 4.372C5.35533 4.64669 4.64669 5.35533 4.372 6.26086C4.25 6.66305 4.25 7.15731 4.25 8.14583C4.25 9.13435 4.25 9.62862 4.372 10.0308C4.64669 10.9363 5.35533 11.645 6.26086 11.9197C6.66305 12.0417 7.15731 12.0417 8.14583 12.0417H13.8125C14.801 12.0417 15.2953 12.0417 15.6975 11.9197C16.603 11.645 17.3117 10.9363 17.5864 10.0308C17.7083 9.62862 17.7083 9.13435 17.7083 8.14583C17.7083 7.15731 17.7083 6.66305 17.5864 6.26086C17.3117 5.35533 16.603 4.64669 15.6975 4.372C15.2953 4.25 14.801 4.25 13.8125 4.25Z" stroke="#F5F6FA" stroke-width="3" stroke-linejoin="round"/>
<path d="M29.75 13.8125V8.14583C29.75 7.15731 29.75 6.66305 29.628 6.26086C29.3533 5.35533 28.6447 4.64669 27.7392 4.372C27.337 4.25 26.8427 4.25 25.8542 4.25C24.8656 4.25 24.3713 4.25 23.9692 4.372C23.0636 4.64669 22.355 5.35533 22.0803 6.26086C21.9583 6.66305 21.9583 7.15731 21.9583 8.14583V13.8125C21.9583 14.801 21.9583 15.2953 22.0803 15.6975C22.355 16.603 23.0636 17.3117 23.9692 17.5864C24.3713 17.7083 24.8656 17.7083 25.8542 17.7083C26.8427 17.7083 27.337 17.7083 27.7392 17.5864C28.6447 17.3117 29.3533 16.603 29.628 15.6975C29.75 15.2953 29.75 14.801 29.75 13.8125Z" stroke="#F5F6FA" stroke-width="3" stroke-linejoin="round"/>
<path d="M23.9692 29.628C24.3713 29.75 24.8656 29.75 25.8542 29.75C26.8427 29.75 27.337 29.75 27.7392 29.628C28.6447 29.3533 29.3533 28.6447 29.628 27.7392C29.75 27.337 29.75 26.8427 29.75 25.8542C29.75 24.8656 29.75 24.3714 29.628 23.9692C29.3533 23.0636 28.6447 22.355 27.7392 22.0803C27.337 21.9583 26.8427 21.9583 25.8542 21.9583C24.8656 21.9583 24.3713 21.9583 23.9692 22.0803C23.0636 22.355 22.355 23.0636 22.0803 23.9692C21.9583 24.3714 21.9583 24.8656 21.9583 25.8542C21.9583 26.8427 21.9583 27.337 22.0803 27.7392C22.355 28.6447 23.0636 29.3533 23.9692 29.628Z" stroke="#F5F6FA" stroke-width="3" stroke-linejoin="round"/>
<path d="M12.0417 16.2917H9.91667C7.24537 16.2917 5.90972 16.2917 5.07987 17.1215C4.25 17.9514 4.25 19.2871 4.25 21.9583V24.0833C4.25 26.7546 4.25 28.0902 5.07987 28.9201C5.90972 29.75 7.24537 29.75 9.91667 29.75H12.0417C14.7129 29.75 16.0486 29.75 16.8784 28.9201C17.7083 28.0902 17.7083 26.7546 17.7083 24.0833V21.9583C17.7083 19.2871 17.7083 17.9514 16.8784 17.1215C16.0486 16.2917 14.7129 16.2917 12.0417 16.2917Z" stroke="#F5F6FA" stroke-width="3" stroke-linejoin="round"/>
</svg>
