<svg width="34" height="34" viewBox="0 0 34 34" fill="none" xmlns="http://www.w3.org/2000/svg">
<path d="M13.5625 4.25H7.89583C6.90731 4.25 6.41305 4.25 6.01086 4.372C5.10533 4.64669 4.39669 5.35533 4.122 6.26086C4 6.66305 4 7.15731 4 8.14583C4 9.13435 4 9.62862 4.122 10.0308C4.39669 10.9363 5.10533 11.645 6.01086 11.9197C6.41305 12.0417 6.90731 12.0417 7.89583 12.0417H13.5625C14.551 12.0417 15.0453 12.0417 15.4475 11.9197C16.353 11.645 17.0617 10.9363 17.3364 10.0308C17.4583 9.62862 17.4583 9.13435 17.4583 8.14583C17.4583 7.15731 17.4583 6.66305 17.3364 6.26086C17.0617 5.35533 16.353 4.64669 15.4475 4.372C15.0453 4.25 14.551 4.25 13.5625 4.25Z" stroke="#4E515A" stroke-width="3" stroke-linejoin="round"/>
<path d="M29.75 13.8125V8.14583C29.75 7.15731 29.75 6.66305 29.628 6.26086C29.3533 5.35533 28.6447 4.64669 27.7392 4.372C27.337 4.25 26.8427 4.25 25.8542 4.25C24.8656 4.25 24.3713 4.25 23.9691 4.372C23.0636 4.64669 22.355 5.35533 22.0803 6.26086C21.9583 6.66305 21.9583 7.15731 21.9583 8.14583V13.8125C21.9583 14.801 21.9583 15.2953 22.0803 15.6975C22.355 16.603 23.0636 17.3117 23.9691 17.5864C24.3713 17.7083 24.8656 17.7083 25.8542 17.7083C26.8427 17.7083 27.337 17.7083 27.7392 17.5864C28.6447 17.3117 29.3533 16.603 29.628 15.6975C29.75 15.2953 29.75 14.801 29.75 13.8125Z" stroke="#4E515A" stroke-width="3" stroke-linejoin="round"/>
<path d="M23.9691 29.628C24.3713 29.75 24.8656 29.75 25.8542 29.75C26.8427 29.75 27.337 29.75 27.7392 29.628C28.6447 29.3533 29.3533 28.6447 29.628 27.7392C29.75 27.337 29.75 26.8427 29.75 25.8542C29.75 24.8656 29.75 24.3714 29.628 23.9692C29.3533 23.0636 28.6447 22.355 27.7392 22.0803C27.337 21.9583 26.8427 21.9583 25.8542 21.9583C24.8656 21.9583 24.3713 21.9583 23.9691 22.0803C23.0636 22.355 22.355 23.0636 22.0803 23.9692C21.9583 24.3714 21.9583 24.8656 21.9583 25.8542C21.9583 26.8427 21.9583 27.337 22.0803 27.7392C22.355 28.6447 23.0636 29.3533 23.9691 29.628Z" stroke="#4E515A" stroke-width="3" stroke-linejoin="round"/>
<path d="M11.7917 14H9.66667C6.99537 14 5.65972 14 4.82987 14.8299C4 15.6598 4 16.9954 4 19.6667V21.7917C4 24.4629 4 25.7986 4.82987 26.6284C5.65972 27.4583 6.99537 27.4583 9.66667 27.4583H11.7917C14.4629 27.4583 15.7986 27.4583 16.6284 26.6284C17.4583 25.7986 17.4583 24.4629 17.4583 21.7917V19.6667C17.4583 16.9954 17.4583 15.6598 16.6284 14.8299C15.7986 14 14.4629 14 11.7917 14Z" stroke="#4E515A" stroke-width="3" stroke-linejoin="round"/>
</svg>
