<svg width="70" height="70" viewBox="0 0 70 70" fill="none" xmlns="http://www.w3.org/2000/svg">
<rect width="70" height="70" rx="20" fill="#E7EDFF"/>
<path d="M44.9167 37.8333H46.6718C48.2455 37.8333 49.4261 39.364 49.1174 41.0047L48.7421 42.9993C48.3774 44.9379 46.7763 46.3333 44.9167 46.3333" stroke="#4880FF" stroke-width="3"/>
<path d="M25.0833 37.8333H23.3283C21.7544 37.8333 20.574 39.364 20.8826 41.0047L21.2579 42.9993C21.6226 44.9379 23.2237 46.3333 25.0833 46.3333" stroke="#4880FF" stroke-width="3"/>
<path d="M43.8819 32.875L44.6207 39.5287C45.0172 44.0369 45.2156 46.291 43.8819 47.7288C42.5484 49.1667 40.2594 49.1667 35.6814 49.1667H34.3186C29.7406 49.1667 27.4516 49.1667 26.118 47.7288C24.7844 46.291 24.9827 44.0369 25.3793 39.5287L26.118 32.8749" stroke="#4880FF" stroke-width="3" stroke-linejoin="round"/>
<path d="M39.25 25.0833C39.25 22.7361 37.3473 20.8333 35 20.8333C32.6527 20.8333 30.75 22.7361 30.75 25.0833" stroke="#4880FF" stroke-width="3"/>
<path d="M25.4541 30.5654C25.0996 28.5599 24.9224 27.5571 25.2754 26.7894C25.5111 26.2768 25.9022 25.8414 26.3996 25.5379C27.1444 25.0833 28.2223 25.0833 30.3782 25.0833H39.6219C41.7776 25.0833 42.8556 25.0833 43.6004 25.5379C44.0978 25.8414 44.4888 26.2768 44.7246 26.7894C45.0776 27.5571 44.9004 28.5599 44.5459 30.5654L44.4735 30.9753C44.3361 31.7529 44.2674 32.1418 44.1318 32.4994C43.8975 33.1173 43.5147 33.6756 43.0134 34.1306C42.7232 34.394 42.3754 34.6127 41.68 35.05C41.0261 35.4611 40.6991 35.6667 40.3536 35.828C39.757 36.1067 39.1154 36.2899 38.4552 36.3702C38.0727 36.4167 37.6798 36.4167 36.8939 36.4167H33.1061C32.3202 36.4167 31.9272 36.4167 31.5448 36.3702C30.8845 36.2899 30.243 36.1067 29.6465 35.828C29.3009 35.6667 28.9739 35.4611 28.32 35.05C27.6245 34.6127 27.2767 34.394 26.9866 34.1306C26.4852 33.6756 26.1025 33.1173 25.8682 32.4994C25.7326 32.1418 25.6639 31.7529 25.5265 30.9753L25.4541 30.5654Z" stroke="#4880FF" stroke-width="3"/>
<path d="M35 32.1699L35.0116 32.1668" stroke="#4880FF" stroke-width="3" stroke-linecap="round" stroke-linejoin="round"/>
</svg>
