<svg width="70" height="70" viewBox="0 0 70 70" fill="none" xmlns="http://www.w3.org/2000/svg">
<rect width="70" height="70" rx="20" fill="#E7EDFF"/>
<path d="M29.3333 40.6667L41.6868 39.6372C45.5522 39.3152 46.4199 38.4708 46.8483 34.6159L47.75 26.5" stroke="#4880FF" stroke-width="3" stroke-linecap="round"/>
<path d="M26.5 26.5H49.1667" stroke="#4880FF" stroke-width="3" stroke-linecap="round"/>
<path d="M26.5 49.1667C28.0648 49.1667 29.3333 47.8981 29.3333 46.3333C29.3333 44.7685 28.0648 43.5 26.5 43.5C24.9352 43.5 23.6667 44.7685 23.6667 46.3333C23.6667 47.8981 24.9352 49.1667 26.5 49.1667Z" stroke="#4880FF" stroke-width="3"/>
<path d="M42.0833 49.1667C43.6481 49.1667 44.9167 47.8981 44.9167 46.3333C44.9167 44.7685 43.6481 43.5 42.0833 43.5C40.5185 43.5 39.25 44.7685 39.25 46.3333C39.25 47.8981 40.5185 49.1667 42.0833 49.1667Z" stroke="#4880FF" stroke-width="3"/>
<path d="M29.3333 46.3333H39.25" stroke="#4880FF" stroke-width="3" stroke-linecap="round"/>
<path d="M20.8333 20.8333H22.2018C23.5401 20.8333 24.7067 21.7182 25.0313 22.9795L29.2462 39.3584C29.4592 40.1861 29.2769 41.0629 28.75 41.7456L27.3955 43.5" stroke="#4880FF" stroke-width="3" stroke-linecap="round"/>
</svg>
