<svg width="70" height="70" viewBox="0 0 70 70" fill="none" xmlns="http://www.w3.org/2000/svg">
<rect width="70" height="70" rx="20" fill="#E7EDFF"/>
<path d="M24.375 35C26.331 35 27.9167 33.4143 27.9167 31.4583C27.9167 29.5023 26.331 27.9167 24.375 27.9167C22.419 27.9167 20.8333 29.5023 20.8333 31.4583C20.8333 33.4143 22.419 35 24.375 35Z" fill="#4880FF"/>
<path d="M30.75 29.3333C32.706 29.3333 34.2917 27.7477 34.2917 25.7917C34.2917 23.8357 32.706 22.25 30.75 22.25C28.794 22.25 27.2083 23.8357 27.2083 25.7917C27.2083 27.7477 28.794 29.3333 30.75 29.3333Z" fill="#4880FF"/>
<path d="M39.25 29.3333C41.206 29.3333 42.7917 27.7477 42.7917 25.7917C42.7917 23.8357 41.206 22.25 39.25 22.25C37.294 22.25 35.7083 23.8357 35.7083 25.7917C35.7083 27.7477 37.294 29.3333 39.25 29.3333Z" fill="#4880FF"/>
<path d="M45.625 35C47.581 35 49.1667 33.4143 49.1667 31.4583C49.1667 29.5023 47.581 27.9167 45.625 27.9167C43.669 27.9167 42.0833 29.5023 42.0833 31.4583C42.0833 33.4143 43.669 35 45.625 35Z" fill="#4880FF"/>
<path d="M42.565 39.0517C41.3325 37.6067 40.2983 36.3742 39.0517 34.9292C38.4 34.1642 37.5642 33.3992 36.5725 33.0592C36.4167 33.0025 36.2608 32.96 36.105 32.9317C35.7508 32.875 35.3683 32.875 35 32.875C34.6317 32.875 34.2492 32.875 33.8808 32.9458C33.725 32.9742 33.5692 33.0167 33.4133 33.0733C32.4217 33.4133 31.6 34.1783 30.9342 34.9433C29.7017 36.3883 28.6675 37.6208 27.4208 39.0658C25.565 40.9217 23.2842 42.9758 23.7092 45.8517C24.12 47.2967 25.1542 48.7275 27.01 49.1383C28.0442 49.3508 31.345 48.515 34.8583 48.515H35.1133C38.6267 48.515 41.9275 49.3367 42.9617 49.1383C44.8175 48.7275 45.8517 47.2825 46.2625 45.8517C46.7017 42.9617 44.4208 40.9075 42.565 39.0517Z" fill="#4880FF"/>
</svg>
