<svg width="70" height="70" viewBox="0 0 70 70" fill="none" xmlns="http://www.w3.org/2000/svg">
<rect width="70" height="70" rx="20" fill="#E7EDFF"/>
<path d="M45.572 23.6575C41.7729 21.3272 38.4572 22.2663 36.4654 23.7621C35.6485 24.3755 35.2403 24.6821 35 24.6821C34.7597 24.6821 34.3514 24.3755 33.5346 23.7621C31.5428 22.2663 28.227 21.3272 24.428 23.6575C19.4423 26.7158 18.3141 36.8051 29.8143 45.3172C32.0048 46.9385 33.1 47.7492 35 47.7492C36.9 47.7492 37.9953 46.9385 40.1857 45.3172C51.6859 36.8051 50.5577 26.7158 45.572 23.6575Z" stroke="#4880FF" stroke-width="3" stroke-linecap="round"/>
<path d="M35 30.75V39.25M30.75 35H39.25" stroke="#4880FF" stroke-width="3" stroke-linecap="round"/>
</svg>
