<svg width="70" height="70" viewBox="0 0 70 70" fill="none" xmlns="http://www.w3.org/2000/svg">
<rect width="70" height="70" rx="20" fill="#E7EDFF"/>
<path d="M38.5417 26.5C39.6418 26.5 40.1919 26.5 40.6257 26.6797C41.2043 26.9194 41.664 27.379 41.9035 27.9576C42.0833 28.3915 42.0833 28.9415 42.0833 30.0417C42.0833 31.1418 42.0833 31.6919 41.9035 32.1258C41.664 32.7043 41.2043 33.164 40.6257 33.4036C40.1919 33.5833 39.6418 33.5833 38.5417 33.5833H31.4583C30.3582 33.5833 29.8081 33.5833 29.3742 33.4036C28.7957 33.164 28.336 32.7043 28.0964 32.1258C27.9167 31.6919 27.9167 31.1418 27.9167 30.0417C27.9167 28.9415 27.9167 28.3915 28.0964 27.9576C28.336 27.379 28.7957 26.9194 29.3742 26.6797C29.8081 26.5 30.3582 26.5 31.4583 26.5H38.5417Z" stroke="#4880FF" stroke-width="3" stroke-linecap="round"/>
<path d="M33.5833 42.0833H30.75M30.75 42.0833H27.9167M30.75 42.0833V44.9167M30.75 42.0833V39.25" stroke="#4880FF" stroke-width="3" stroke-linecap="round"/>
<path d="M42.0833 43.5V40.6667" stroke="#4880FF" stroke-width="3" stroke-linecap="round" stroke-linejoin="round"/>
<path d="M47.75 36.4167V33.5833C47.75 28.2712 47.75 25.6152 46.3972 23.7532C45.9603 23.1519 45.4315 22.623 44.8301 22.1861C42.9682 20.8333 40.3121 20.8333 35 20.8333C29.6879 20.8333 27.0318 20.8333 25.1698 22.1861C24.5685 22.623 24.0397 23.1519 23.6028 23.7532C22.25 25.6152 22.25 28.2712 22.25 33.5833V36.4167C22.25 41.7287 22.25 44.3849 23.6028 46.2468C24.0397 46.8481 24.5685 47.377 25.1698 47.8139C27.0318 49.1667 29.6879 49.1667 35 49.1667C40.3121 49.1667 42.9682 49.1667 44.8301 47.8139C45.4315 47.377 45.9603 46.8481 46.3972 46.2468C47.75 44.3849 47.75 41.7287 47.75 36.4167Z" stroke="#4880FF" stroke-width="3" stroke-linecap="round"/>
</svg>
