<svg width="70" height="70" viewBox="0 0 70 70" fill="none" xmlns="http://www.w3.org/2000/svg">
<rect width="70" height="70" rx="20" fill="#E7EDFF"/>
<path d="M42.7973 28.6264H28.625V42.7973H42.7959L42.7973 28.6264Z" fill="#4880FF"/>
<path d="M48.4654 25.7917V22.9583H45.6321V20.125H42.7973V22.9583H39.964V20.125H37.1292V22.9583H34.2959V20.125H31.4598V22.9583H28.6264V20.125H25.7917V22.9583H22.9583V25.7917H20.125V28.6264H22.9583V31.4598H20.125V34.2945H22.9583V37.1278H20.125V39.9626H22.9583V42.7959H20.125V45.6307H22.9583V48.464H25.7917V51.2987H28.6264V48.4654H31.4598V51.2987H34.2945V48.4654H37.1278V51.2987H39.9626V48.4654H42.7959V51.2987H45.6307V48.4654H48.464V45.6321H51.2987V42.7973H48.4654V39.964H51.2987V37.1292H48.4654V34.2959H51.2987V31.4598H48.4654V28.6264H51.2987V25.7917H48.4654ZM45.6321 45.6307H25.7917V25.7931H45.6292L45.6321 45.6307Z" fill="#4880FF"/>
</svg>
