<svg width="70" height="70" viewBox="0 0 70 70" fill="none" xmlns="http://www.w3.org/2000/svg">
<rect width="70" height="70" rx="20" fill="#E7EDFF"/>
<path d="M40.4778 23.3556C41.7902 22.2952 43.2602 22.2308 44.8662 22.2533C45.697 22.2649 46.1123 22.2708 46.4455 22.4C46.9742 22.605 47.395 23.0258 47.6 23.5545C47.7292 23.8877 47.735 24.303 47.7467 25.1337C47.7693 26.7398 47.7048 28.2097 46.6444 29.5221C45.7515 30.6273 44.2167 31.2048 43.4782 32.4246C42.9143 33.356 43.177 34.3204 43.4193 35.3129L45.2323 42.7438C45.5937 44.2246 45.3187 45.1738 44.2833 46.2092C43.7323 46.7602 43.274 46.7323 42.8272 46.0203L37.3555 37.3019L34.7423 39.3791C33.7948 40.1323 33.3211 40.5089 33.0722 41.0388C32.4891 42.28 32.8593 44.1442 32.8781 45.4899C32.8886 46.2336 32.2459 47.6996 31.3364 47.749C30.7749 47.7796 30.584 47.108 30.4026 46.6957L28.6566 42.7271C28.2391 41.778 28.222 41.7609 27.2729 41.3434L23.3042 39.5974C22.892 39.416 22.2205 39.2251 22.251 38.6636C22.3005 37.7541 23.7663 37.1114 24.5101 37.1219C25.8559 37.1407 27.7201 37.5109 28.9612 36.9278C29.4912 36.6789 29.8678 36.2052 30.6209 35.2577L32.6981 32.6445L23.9798 27.1728C23.2678 26.7259 23.2399 26.2676 23.7907 25.7168C24.8262 24.6813 25.7754 24.4064 27.2562 24.7677L34.6871 26.5808C35.6796 26.823 36.644 27.0857 37.5754 26.5218C38.7952 25.7833 39.3727 24.2486 40.4778 23.3556Z" stroke="#4880FF" stroke-width="3" stroke-linecap="round" stroke-linejoin="round"/>
</svg>
