<svg width="70" height="70" viewBox="0 0 70 70" fill="none" xmlns="http://www.w3.org/2000/svg">
<rect width="70" height="70" rx="20" fill="#E7EDFF"/>
<path d="M35.0106 27.35C37.3588 27.35 39.2606 25.4481 39.2606 23.1H42.1028C43.0059 23.1 43.8719 23.4559 44.5094 24.0934L50.81 30.3994C51.4741 31.0634 51.4741 32.1419 50.81 32.8059L48.1166 35.4994C47.4525 36.1634 46.3741 36.1634 45.71 35.4994L43.5106 33.3V45.2C43.5106 47.0753 41.9859 48.6 40.1106 48.6H29.9106C28.0353 48.6 26.5106 47.0753 26.5106 45.2V33.3L24.3113 35.4994C23.6472 36.1634 22.5688 36.1634 21.9047 35.4994L19.2166 32.8006C18.5525 32.1366 18.5525 31.0581 19.2166 30.3941L25.5172 24.0934C26.1547 23.4559 27.0206 23.1 27.9238 23.1H30.7659C30.7659 25.4481 32.6678 27.35 35.0159 27.35H35.0106Z" fill="#4880FF"/>
</svg>
