<svg width="70" height="70" viewBox="0 0 70 70" fill="none" xmlns="http://www.w3.org/2000/svg">
<rect width="70" height="70" rx="20" fill="#E7EDFF"/>
<path fill-rule="evenodd" clip-rule="evenodd" d="M35 44.9167C35.347 44.9167 35.6819 45.0441 35.9412 45.2747C36.2005 45.5053 36.3662 45.823 36.4068 46.1676L36.4167 46.3333V47.75C36.4163 48.1111 36.278 48.4584 36.0301 48.7209C35.7823 48.9835 35.4435 49.1415 35.083 49.1627C34.7226 49.1838 34.3676 49.0665 34.0907 48.8348C33.8138 48.603 33.6359 48.2743 33.5933 47.9157L33.5833 47.75V46.3333C33.5833 45.9576 33.7326 45.5973 33.9983 45.3316C34.2639 45.0659 34.6243 44.9167 35 44.9167ZM27.9875 42.0125C28.2531 42.2782 28.4023 42.6384 28.4023 43.0141C28.4023 43.3897 28.2531 43.75 27.9875 44.0157L26.9859 45.0172C26.8552 45.1526 26.6989 45.2605 26.5261 45.3347C26.3532 45.409 26.1673 45.4481 25.9792 45.4497C25.7911 45.4513 25.6046 45.4155 25.4305 45.3442C25.2564 45.273 25.0982 45.1678 24.9652 45.0348C24.8322 44.9018 24.727 44.7436 24.6558 44.5695C24.5845 44.3954 24.5487 44.2089 24.5503 44.0208C24.5519 43.8327 24.591 43.6468 24.6653 43.4739C24.7395 43.3011 24.8474 43.1448 24.9828 43.0141L25.9843 42.0125C26.25 41.7469 26.6103 41.5977 26.9859 41.5977C27.3616 41.5977 27.7218 41.7469 27.9875 42.0125ZM44.0157 42.0125L45.0173 43.0141C45.2753 43.2813 45.4181 43.6391 45.4149 44.0106C45.4116 44.382 45.2627 44.7373 45 45C44.7373 45.2627 44.382 45.4116 44.0106 45.4149C43.6391 45.4181 43.2813 45.2753 43.0141 45.0172L42.0125 44.0157C41.7544 43.7485 41.6117 43.3906 41.6149 43.0192C41.6181 42.6477 41.7671 42.2924 42.0298 42.0298C42.2924 41.7671 42.6477 41.6181 43.0192 41.6149C43.3906 41.6116 43.7485 41.7544 44.0157 42.0125ZM35.8741 20.8333C36.5648 20.8332 37.2318 21.0853 37.7496 21.5424C38.2675 21.9995 38.6005 22.63 38.6862 23.3153L39.2245 27.622C40.8504 28.5532 42.123 29.9955 42.8445 31.7247C43.566 33.4539 43.696 35.373 43.2142 37.1836C42.7324 38.9943 41.6658 40.595 40.1803 41.7369C38.6948 42.8788 36.8737 43.4979 35 43.4979C33.1263 43.4979 31.3052 42.8788 29.8197 41.7369C28.3342 40.595 27.2676 38.9943 26.7858 37.1836C26.304 35.373 26.434 33.4539 27.1555 31.7247C27.877 29.9955 29.1496 28.5532 30.7755 27.622L31.3138 23.3153C31.3995 22.63 31.7325 21.9995 32.2504 21.5424C32.7682 21.0853 33.4352 20.8332 34.1259 20.8333H35.8741ZM23.6667 33.5833C24.0424 33.5833 24.4027 33.7326 24.6684 33.9983C24.9341 34.2639 25.0833 34.6243 25.0833 35C25.0833 35.3757 24.9341 35.7361 24.6684 36.0017C24.4027 36.2674 24.0424 36.4167 23.6667 36.4167H22.25C21.8743 36.4167 21.5139 36.2674 21.2483 36.0017C20.9826 35.7361 20.8333 35.3757 20.8333 35C20.8333 34.6243 20.9826 34.2639 21.2483 33.9983C21.5139 33.7326 21.8743 33.5833 22.25 33.5833H23.6667ZM47.75 33.5833C48.1257 33.5833 48.4861 33.7326 48.7517 33.9983C49.0174 34.2639 49.1667 34.6243 49.1667 35C49.1667 35.3757 49.0174 35.7361 48.7517 36.0017C48.4861 36.2674 48.1257 36.4167 47.75 36.4167H46.3333C45.9576 36.4167 45.5973 36.2674 45.3316 36.0017C45.0659 35.7361 44.9167 35.3757 44.9167 35C44.9167 34.6243 45.0659 34.2639 45.3316 33.9983C45.5973 33.7326 45.9576 33.5833 46.3333 33.5833H47.75ZM45.0173 24.9842C45.2828 25.2498 45.432 25.6101 45.432 25.9857C45.432 26.3614 45.2828 26.7217 45.0173 26.9873L44.0157 27.9889C43.885 28.1242 43.7287 28.2321 43.5558 28.3064C43.383 28.3806 43.1971 28.4197 43.009 28.4213C42.8209 28.423 42.6343 28.3871 42.4602 28.3159C42.2861 28.2447 42.128 28.1395 41.9949 28.0065C41.8619 27.8735 41.7567 27.7153 41.6855 27.5412C41.6143 27.3671 41.5784 27.1805 41.5801 26.9924C41.5817 26.8043 41.6208 26.6184 41.695 26.4456C41.7693 26.2727 41.8772 26.1164 42.0125 25.9857L43.0141 24.9842C43.2798 24.7186 43.64 24.5694 44.0157 24.5694C44.3913 24.5694 44.7516 24.7186 45.0173 24.9842ZM26.9859 24.9842L27.9875 25.9857C28.2392 26.2541 28.3766 26.6099 28.3706 26.9778C28.3646 27.3457 28.2158 27.6968 27.9555 27.9569C27.6952 28.217 27.344 28.3656 26.9761 28.3713C26.6082 28.377 26.2525 28.2394 25.9843 27.9875L24.9828 26.9859C24.7311 26.7175 24.5937 26.3617 24.5997 25.9939C24.6056 25.626 24.7545 25.2749 25.0148 25.0148C25.275 24.7547 25.6263 24.6061 25.9941 24.6004C26.362 24.5947 26.7177 24.7323 26.9859 24.9842ZM35.8741 23.6667H34.1259L33.7718 26.5H36.2283L35.8741 23.6667Z" fill="#4880FF"/>
</svg>
