<svg width="70" height="70" viewBox="0 0 70 70" fill="none" xmlns="http://www.w3.org/2000/svg">
<rect width="70" height="70" rx="20" fill="#E7EDFF"/>
<path d="M24.6689 21.3878C24.695 21.1132 24.8262 20.8593 25.035 20.6791C25.2439 20.499 25.5143 20.4064 25.7897 20.4208C26.0652 20.4352 26.3245 20.5555 26.5134 20.7565C26.7023 20.9575 26.8063 21.2237 26.8036 21.4996V28.6238C26.8036 28.8653 26.8995 29.097 27.0703 29.2678C27.2411 29.4385 27.4727 29.5345 27.7143 29.5345C27.9558 29.5345 28.1875 29.4385 28.3583 29.2678C28.529 29.097 28.625 28.8653 28.625 28.6238V21.3393C28.625 21.0977 28.7209 20.8661 28.8917 20.6953C29.0625 20.5245 29.2942 20.4286 29.5357 20.4286C29.7772 20.4286 30.0089 20.5245 30.1797 20.6953C30.3505 20.8661 30.4464 21.0977 30.4464 21.3393V28.6238C30.4464 28.8653 30.5424 29.097 30.7132 29.2678C30.884 29.4385 31.1156 29.5345 31.3571 29.5345C31.5987 29.5345 31.8303 29.4385 32.0011 29.2678C32.1719 29.097 32.2679 28.8653 32.2679 28.6238V21.4996C32.271 21.2274 32.3777 20.9666 32.5662 20.7702C32.7547 20.5738 33.011 20.4566 33.2828 20.4424C33.5547 20.4282 33.8217 20.518 34.0297 20.6936C34.2377 20.8692 34.371 21.1175 34.4026 21.3878C34.4949 22.2646 35 27.1982 35 29.5357C35 31.1604 34.2896 32.62 33.1664 33.6206C32.7609 33.98 32.5714 34.3504 32.5714 34.6612V35.544L32.5726 35.6011C32.6236 36.3284 33.1786 44.4496 33.1786 45.9286C33.1786 46.407 33.0843 46.8807 32.9013 47.3226C32.7182 47.7646 32.4499 48.1662 32.1116 48.5045C31.7733 48.8427 31.3717 49.1111 30.9298 49.2941C30.4878 49.4772 30.0141 49.5714 29.5357 49.5714C29.0573 49.5714 28.5836 49.4772 28.1417 49.2941C27.6997 49.1111 27.2981 48.8427 26.9598 48.5045C26.6216 48.1662 26.3532 47.7646 26.1702 47.3226C25.9871 46.8807 25.8929 46.407 25.8929 45.9286C25.8929 44.4496 26.449 36.3284 26.4988 35.6011L26.5 35.544V34.6612C26.5 34.3516 26.3106 33.9812 25.905 33.6206C25.3282 33.1078 24.8666 32.4786 24.5506 31.7746C24.2346 31.0705 24.0713 30.3075 24.0714 29.5357C24.0714 27.1982 24.5766 22.2646 24.6689 21.3878ZM41.0168 35L40.9779 35.6751C40.9209 36.6672 40.8444 38.0066 40.7691 39.3933C40.6185 42.1461 40.4643 45.1417 40.4643 45.9286C40.4643 46.407 40.5585 46.8807 40.7416 47.3226C40.9247 47.7646 41.193 48.1662 41.5313 48.5045C41.8695 48.8427 42.2711 49.1111 42.7131 49.2941C43.1551 49.4772 43.6288 49.5714 44.1071 49.5714C44.5855 49.5714 45.0592 49.4772 45.5012 49.2941C45.9432 49.1111 46.3448 48.8427 46.683 48.5045C47.0213 48.1662 47.2896 47.7646 47.4727 47.3226C47.6558 46.8807 47.75 46.407 47.75 45.9286C47.75 45.0531 47.5581 41.7101 47.393 38.8189L47.3881 38.7388C47.2558 36.4329 47.1429 34.4536 47.1429 34.0893V21.3393C47.1429 21.0977 47.0469 20.8661 46.8761 20.6953C46.7053 20.5245 46.4737 20.4286 46.2321 20.4286H45.625C43.4512 20.4286 41.3664 21.2921 39.8293 22.8292C38.2921 24.3664 37.4286 26.4512 37.4286 28.625V32.875C37.4286 34.048 38.3806 35 39.5536 35H41.0168Z" fill="#4880FF"/>
</svg>
