<svg width="84" height="27" viewBox="0 0 84 27" fill="none" xmlns="http://www.w3.org/2000/svg">
<g clip-path="url(#clip0_226_6)">
<path d="M54.7297 0C48.7732 0 43.4251 3.08118 43.4251 8.73529C43.4251 15.2471 52.8723 15.6918 52.8723 18.9318C52.8723 20.2976 51.2711 21.5365 48.581 21.5365C44.7381 21.5365 41.8559 19.8212 41.8559 19.8212L40.639 25.5388C40.639 25.5388 43.9375 27 48.3568 27C54.8898 27 60.0137 23.7918 60.0137 18.0106C60.0137 11.1494 50.5345 10.7047 50.5345 7.68706C50.5345 6.60706 51.8475 5.43177 54.5376 5.43177C57.5799 5.43177 60.0778 6.67059 60.0778 6.67059L61.2947 1.14353C61.2627 1.14353 58.5406 0 54.7297 0ZM0.160122 0.412941L0 1.23882C0 1.23882 2.4979 1.68353 4.77164 2.60471C7.68586 3.65294 7.878 4.25647 8.39039 6.13059L13.7385 26.5553H20.9119L31.8963 0.412941H24.7549L17.6775 18.2012L14.7953 3.11294C14.5391 1.39765 13.1941 0.412941 11.5288 0.412941H0.160122ZM34.7785 0.412941L29.1742 26.5553H35.9954L41.5677 0.412941H34.7785ZM72.7594 0.412941C71.1262 0.412941 70.2615 1.27059 69.621 2.79529L59.6294 26.5553H66.7709L68.1479 22.5847H76.8586L77.6912 26.5553H84L78.5238 0.412941H72.7594ZM73.6881 7.49647L75.8018 17.3118H70.1334L73.6881 7.49647Z" fill="#202224" fill-opacity="0.5"/>
</g>
<defs>
<clipPath id="clip0_226_6">
<rect width="84" height="27" fill="white"/>
</clipPath>
</defs>
</svg>
