<svg width="70" height="70" viewBox="0 0 70 70" fill="none" xmlns="http://www.w3.org/2000/svg">
<rect width="70" height="70" rx="20" fill="#E7EDFF"/>
<path d="M43.5 22.25V29.3333M26.5 22.25V29.3333" stroke="#4880FF" stroke-width="3" stroke-linecap="round" stroke-linejoin="round"/>
<path d="M47.0417 23.6667V25.7917M47.0417 25.7917V27.9167M47.0417 25.7917H49.1667M22.9583 23.6667V25.7917M22.9583 25.7917V27.9167M22.9583 25.7917H20.8333" stroke="#4880FF" stroke-width="3" stroke-linecap="round" stroke-linejoin="round"/>
<path d="M43.5 25.7917H26.5" stroke="#4880FF" stroke-width="3" stroke-linecap="round" stroke-linejoin="round"/>
<path d="M28.3084 44.9167H41.6916C43.4448 44.9167 44.3212 44.9167 44.6838 44.488C45.5064 43.5152 43.9304 42.2294 43.3554 41.5813C42.7074 40.8511 42.2334 40.6667 41.2757 40.6667H28.7244C27.7666 40.6667 27.2927 40.8511 26.6447 41.5813C26.0696 42.2294 24.4937 43.5152 25.3163 44.488C25.6787 44.9167 26.5553 44.9167 28.3084 44.9167Z" stroke="#4880FF" stroke-width="3" stroke-linecap="round" stroke-linejoin="round"/>
<path d="M30.75 29.3333V40.6667M39.25 29.3333V40.6667" stroke="#4880FF" stroke-width="3" stroke-linecap="round" stroke-linejoin="round"/>
<path d="M40.6667 44.9167V47.75M29.3333 44.9167V47.75" stroke="#4880FF" stroke-width="3" stroke-linecap="round" stroke-linejoin="round"/>
</svg>
