<svg width="70" height="70" viewBox="0 0 70 70" fill="none" xmlns="http://www.w3.org/2000/svg">
<rect width="70" height="70" rx="20" fill="#E7EDFF"/>
<path d="M37.8333 25.0833C38.2 25.0833 38.5525 25.2255 38.8165 25.48L38.9397 25.6146L44.18 32.1667H44.9167C46.0007 32.1666 47.0438 32.5808 47.8325 33.3245C48.6213 34.0682 49.096 35.0851 49.1596 36.1673L49.1667 36.4167V42.0833C49.1667 42.4591 49.0174 42.8194 48.7517 43.0851C48.4861 43.3507 48.1257 43.5 47.75 43.5H46.0911C45.7978 44.3285 45.255 45.0458 44.5372 45.5531C43.8195 46.0604 42.9622 46.3328 42.0833 46.3328C41.2044 46.3328 40.3471 46.0604 39.6294 45.5531C38.9117 45.0458 38.3689 44.3285 38.0756 43.5H31.9244C31.6311 44.3285 31.0883 45.0458 30.3706 45.5531C29.6529 46.0604 28.7956 46.3328 27.9167 46.3328C27.0378 46.3328 26.1805 46.0604 25.4627 45.5531C24.745 45.0458 24.2022 44.3285 23.9089 43.5H22.25C21.8743 43.5 21.5139 43.3507 21.2483 43.0851C20.9826 42.8194 20.8333 42.4591 20.8333 42.0833V33.5833L20.8432 33.4176L20.8546 33.3382L20.8787 33.2277L20.8957 33.1767L20.9155 33.1059L23.7687 25.9744C23.8737 25.7115 24.0551 25.4861 24.2894 25.3273C24.5237 25.1685 24.8002 25.0835 25.0833 25.0833H37.8333ZM27.9167 40.6667C27.5409 40.6667 27.1806 40.8159 26.9149 41.0816C26.6493 41.3473 26.5 41.7076 26.5 42.0833C26.5 42.4591 26.6493 42.8194 26.9149 43.0851C27.1806 43.3507 27.5409 43.5 27.9167 43.5C28.2924 43.5 28.6527 43.3507 28.9184 43.0851C29.1841 42.8194 29.3333 42.4591 29.3333 42.0833C29.3333 41.7076 29.1841 41.3473 28.9184 41.0816C28.6527 40.8159 28.2924 40.6667 27.9167 40.6667ZM42.0833 40.6667C41.7076 40.6667 41.3473 40.8159 41.0816 41.0816C40.8159 41.3473 40.6667 41.7076 40.6667 42.0833C40.6667 42.4591 40.8159 42.8194 41.0816 43.0851C41.3473 43.3507 41.7076 43.5 42.0833 43.5C42.4591 43.5 42.8194 43.3507 43.0851 43.0851C43.3507 42.8194 43.5 42.4591 43.5 42.0833C43.5 41.7076 43.3507 41.3473 43.0851 41.0816C42.8194 40.8159 42.4591 40.6667 42.0833 40.6667ZM33.5833 27.9167H26.041L24.341 32.1667H33.5833V27.9167ZM37.1533 27.9167H36.4167V32.1667H40.5533L37.1533 27.9167Z" fill="#4880FF"/>
</svg>
