<svg width="70" height="70" viewBox="0 0 70 70" fill="none" xmlns="http://www.w3.org/2000/svg">
<rect width="70" height="70" rx="20" fill="#E7EDFF"/>
<path d="M18 48.1143V30.6286C18 30.0133 18.1509 29.4305 18.4526 28.88C18.7544 28.3295 19.1702 27.8762 19.7 27.52L32.45 18.7771C33.1937 18.259 34.0437 18 35 18C35.9562 18 36.8062 18.259 37.55 18.7771L50.3 27.52C50.8312 27.8762 51.2477 28.3295 51.5495 28.88C51.8512 29.4305 52.0014 30.0133 52 30.6286V48.1143C52 49.1828 51.5835 50.0979 50.7505 50.8595C49.9175 51.6211 48.9173 52.0013 47.75 52H41.375C40.7729 52 40.2686 51.8135 39.862 51.4404C39.4554 51.0674 39.2514 50.6063 39.25 50.0571V40.3429C39.25 39.7924 39.046 39.3313 38.638 38.9595C38.23 38.5878 37.7257 38.4013 37.125 38.4H32.875C32.2729 38.4 31.7686 38.5865 31.362 38.9595C30.9554 39.3326 30.7514 39.7937 30.75 40.3429V50.0571C30.75 50.6076 30.546 51.0694 30.138 51.4424C29.73 51.8154 29.2257 52.0013 28.625 52H22.25C21.0812 52 20.0811 51.6198 19.2495 50.8595C18.4179 50.0992 18.0014 49.1841 18 48.1143Z" fill="#4880FF"/>
</svg>
