<svg width="27" height="22" viewBox="0 0 27 22" fill="none" xmlns="http://www.w3.org/2000/svg">
<path d="M24.083 0C25.6412 3.90113e-07 26.9158 1.27482 26.916 2.83301V7.08301H18.417L18.2725 7.0752C17.6078 7.00719 17.0758 6.47518 17.0078 5.81055L17 5.66602C17.0003 4.9358 17.5606 4.32965 18.2725 4.25684L18.417 4.25H19.125V2.83301H18.417L18.1279 2.84766C16.7041 2.99347 15.5833 4.20541 15.583 5.66602C15.583 7.12693 16.7039 8.33954 18.1279 8.48535L18.417 8.5H20.542V12.75H18.417L18.2324 12.7539C16.3379 12.847 14.8753 14.3698 14.875 16.291L14.8799 16.4756C14.97 18.3093 16.3987 19.738 18.2324 19.8281L18.417 19.833H19.833V18.416H18.417L18.1943 18.4053C17.1739 18.3067 16.4013 17.5341 16.3027 16.5137L16.292 16.291C16.2923 15.1624 17.1012 14.2823 18.1943 14.1768L18.417 14.166H26.916V18.417C26.9158 19.9752 25.6412 21.25 24.083 21.25H2.83301C1.27478 21.25 0.000177844 19.9752 0 18.417V14.166H8.5L8.72266 14.1768C9.8155 14.2826 10.6247 15.1626 10.625 16.291L10.6143 16.5137C10.5157 17.5339 9.74275 18.3064 8.72266 18.4053L8.5 18.416H7.08301V19.833H8.5C10.4213 19.8328 11.944 18.3702 12.0371 16.4756L12.042 16.291C12.0417 14.3081 10.483 12.7502 8.5 12.75H6.375V8.5H8.5L8.78906 8.48535C10.2128 8.33922 11.333 7.1267 11.333 5.66602C11.3327 4.10809 10.058 2.83319 8.5 2.83301H6.375V4.25H8.5L8.64453 4.25684C9.35614 4.32993 9.91666 4.936 9.91699 5.66602L9.90918 5.81055C9.84121 6.47496 9.30886 7.00689 8.64453 7.0752L8.5 7.08301H0V2.83301C0.000177519 1.27482 1.27478 0 2.83301 0H24.083ZM0 8.5H4.95801V12.75H0V8.5ZM26.916 12.75H21.958V8.5H26.916V12.75Z" fill="white"/>
</svg>
