<svg width="70" height="70" viewBox="0 0 70 70" fill="none" xmlns="http://www.w3.org/2000/svg">
<rect width="70" height="70" rx="35" fill="#FFF5D9"/>
<g clip-path="url(#clip0_176_343)">
<path fill-rule="evenodd" clip-rule="evenodd" d="M20.5144 20.283C20.3755 20.3912 20.2594 20.5258 20.1726 20.679C20.0858 20.8321 20.03 21.0009 20.0086 21.1757C19.9871 21.3504 20.0002 21.5277 20.0473 21.6974C20.0944 21.867 20.1745 22.0257 20.283 22.1644C29.7372 34.2737 35.4758 39.9437 47.8294 49.7108C48.1079 49.9313 48.4625 50.0322 48.8154 49.9912C49.1682 49.9502 49.4903 49.7707 49.7108 49.4922C49.9313 49.2138 50.0322 48.8591 49.9912 48.5063C49.9502 48.1534 49.7707 47.8313 49.4922 47.6108C48.4149 46.7595 47.3427 45.9017 46.2758 45.0372C47.7694 44.2337 48.8494 42.7015 48.8494 40.8587V33.4037H33.3737C32.5275 32.5254 31.6952 31.6339 30.8772 30.7294L30.9822 30.7251H48.8494V28.6358C48.8494 26.553 47.4137 24.6715 45.2537 24.3287C41.8609 23.807 38.4328 23.5491 35.0001 23.5572C30.1058 23.5572 27.858 23.9622 25.9144 24.3137L25.4772 24.3908C24.4382 23.1082 23.411 21.816 22.3958 20.5144C22.2876 20.3755 22.153 20.2594 21.9998 20.1726C21.8466 20.0858 21.6778 20.03 21.5031 20.0086C21.3283 19.9871 21.1511 20.0002 20.9814 20.0473C20.8118 20.0944 20.6531 20.1745 20.5144 20.283ZM38.1008 38.0258C39.2472 39.0822 40.443 40.1451 41.7094 41.2337H41.8958C42.3221 41.2337 42.7308 41.0643 43.0322 40.7629C43.3336 40.4615 43.503 40.0528 43.503 39.6265C43.503 39.2003 43.3336 38.7915 43.0322 38.4901C42.7308 38.1887 42.3221 38.0194 41.8958 38.0194H38.2422L38.1008 38.0258ZM23.8294 30.1122C23.8294 29.757 23.6883 29.4164 23.4371 29.1652C23.186 28.9141 22.8453 28.773 22.4901 28.773C22.1349 28.773 21.7942 28.9141 21.5431 29.1652C21.2919 29.4164 21.1508 29.757 21.1508 30.1122V40.8565C21.1508 43.2887 23.028 45.1787 25.2608 45.5708L25.9144 45.6865C27.873 46.038 30.1101 46.443 35.0001 46.443C35.118 46.443 36.5001 46.4365 37.4858 46.4087C37.841 46.3987 38.1777 46.2481 38.4218 45.9899C38.666 45.7317 38.7975 45.3871 38.7876 45.0319C38.7777 44.6767 38.627 44.34 38.3688 44.0958C38.1106 43.8517 37.766 43.7201 37.4108 43.7301C36.6074 43.7495 35.8038 43.7609 35.0001 43.7644C30.3437 43.7644 28.2758 43.3894 26.3815 43.0487L25.7215 42.9287C24.6051 42.7337 23.8294 41.823 23.8294 40.8544V33.4058H24.6394C24.9946 33.4058 25.3352 33.2647 25.5864 33.0135C25.8376 32.7624 25.9787 32.4217 25.9787 32.0665C25.9787 31.7113 25.8376 31.3707 25.5864 31.1195C25.3352 30.8683 24.9946 30.7272 24.6394 30.7272H23.8294V30.1122Z" fill="#FFBB38"/>
</g>
<defs>
<clipPath id="clip0_176_343">
<rect width="30" height="30" fill="white" transform="translate(20 20)"/>
</clipPath>
</defs>
</svg>
