<svg width="32" height="32" viewBox="0 0 32 32" fill="none" xmlns="http://www.w3.org/2000/svg">
<path d="M18.6667 4H6.66667C5.19391 4 4 5.19391 4 6.66667C4 8.13943 5.19391 9.33333 6.66667 9.33333H24C24 8.09337 24 7.47339 23.8637 6.96472C23.4939 5.58436 22.4156 4.50616 21.0353 4.13629C20.5267 4 19.9067 4 18.6667 4Z" stroke="#4880FF" stroke-width="3" stroke-linecap="round" stroke-linejoin="round"/>
<path d="M4 6.66667V20C4 23.7712 4 25.6568 5.17157 26.8284C6.34315 28 8.22876 28 12 28H20C23.7712 28 25.6568 28 26.8284 26.8284C28 25.6568 28 23.7712 28 20V17.3333C28 13.5621 28 11.6765 26.8284 10.5049C25.6568 9.33333 23.7712 9.33333 20 9.33333H9.33333" stroke="#4880FF" stroke-width="3" stroke-linecap="round" stroke-linejoin="round"/>
<path d="M28 16H25.3333C24.7133 16 24.4033 16 24.1491 16.0681C23.4588 16.2531 22.9197 16.7921 22.7348 17.4824C22.6667 17.7367 22.6667 18.0467 22.6667 18.6667C22.6667 19.2867 22.6667 19.5967 22.7348 19.8509C22.9197 20.5412 23.4588 21.0803 24.1491 21.2652C24.4033 21.3333 24.7133 21.3333 25.3333 21.3333H28" stroke="#4880FF" stroke-width="3" stroke-linecap="round" stroke-linejoin="round"/>
</svg>
